<svg width="32" height="32" viewBox="0 0 32 32" fill="none" xmlns="http://www.w3.org/2000/svg">
<circle cx="16" cy="16" r="16" fill="#F4F4F5"/>
<g clip-path="url(#clip0_1_2)">
<path d="M16.5 24V14.5C16.5 13.9477 16.0523 13.5 15.5 13.5C14.9477 13.5 14.5 13.9477 14.5 14.5V24C14.5 24.2761 14.7239 24.5 15 24.5H16C16.2761 24.5 16.5 24.2761 16.5 24Z" fill="#09090B"/>
<path d="M12.5 15.1612C12.5 15.1612 10.5 14 10.5 11C10.5 8 13.5 8 13.5 8" stroke="#09090B" stroke-width="2" stroke-linecap="round" stroke-linejoin="round"/>
<path d="M15.5 8C15.5 8 18.5 8 18.5 11C18.5 14 16.5 15.1612 16.5 15.1612" stroke="#09090B" stroke-width="2" stroke-linecap="round" stroke-linejoin="round"/>
<path d="M12.5 11.5C12.5 11.5 11.5 13.5 13 15" stroke="#09090B" stroke-width="2" stroke-linecap="round" stroke-linejoin="round"/>
</g>
<defs>
<clipPath id="clip0_1_2">
<rect width="16" height="16" fill="white" transform="translate(8 8)"/>
</clipPath>
</defs>
</svg>
